<svg width="38" height="38" viewBox="0 0 38 38" fill="none" xmlns="http://www.w3.org/2000/svg">
<path fill-rule="evenodd" clip-rule="evenodd" d="M31.2386 25.5577C31.1381 25.0035 31.2059 24.4319 31.4333 23.9167C31.6499 23.4114 32.0095 22.9805 32.4678 22.6769C32.9261 22.3734 33.4632 22.2105 34.0129 22.2083H34.1667C35.0728 22.2083 35.9419 21.8484 36.5826 21.2076C37.2234 20.5669 37.5833 19.6978 37.5833 18.7917C37.5833 17.8855 37.2234 17.0165 36.5826 16.3757C35.9419 15.735 35.0728 15.375 34.1667 15.375H33.8762C33.3265 15.3728 32.7895 15.2099 32.3311 14.9064C31.8728 14.6029 31.5132 14.1719 31.2967 13.6667V13.53C31.0693 13.0147 31.0014 12.4432 31.1019 11.889C31.2024 11.3348 31.4666 10.8235 31.8604 10.4208L31.9629 10.3183C32.2806 10.001 32.5326 9.6242 32.7045 9.20942C32.8765 8.79464 32.965 8.35004 32.965 7.90104C32.965 7.45204 32.8765 7.00744 32.7045 6.59266C32.5326 6.17789 32.2806 5.80107 31.9629 5.48375C31.6456 5.16608 31.2688 4.91407 30.854 4.74213C30.4392 4.57019 29.9946 4.48169 29.5456 4.48169C29.0966 4.48169 28.652 4.57019 28.2372 4.74213C27.8225 4.91407 27.4456 5.16608 27.1283 5.48375L27.0258 5.58625C26.6232 5.98008 26.1118 6.24428 25.5577 6.34476C25.0035 6.44524 24.4319 6.3774 23.9167 6.15C23.4114 5.93345 22.9805 5.57387 22.6769 5.11555C22.3734 4.65722 22.2105 4.12013 22.2083 3.57042V3.41667C22.2083 2.51051 21.8484 1.64147 21.2076 1.00072C20.5669 0.359969 19.6978 0 18.7917 0C17.8855 0 17.0165 0.359969 16.3757 1.00072C15.735 1.64147 15.375 2.51051 15.375 3.41667V3.70708C15.3728 4.2568 15.2099 4.79388 14.9064 5.25221C14.6029 5.71054 14.1719 6.07011 13.6667 6.28667H13.53C13.0147 6.51407 12.4432 6.58191 11.889 6.48142C11.3348 6.38094 10.8235 6.11675 10.4208 5.72292L10.3183 5.62042C10.001 5.30275 9.6242 5.05074 9.20942 4.8788C8.79464 4.70685 8.35004 4.61835 7.90104 4.61835C7.45204 4.61835 7.00744 4.70685 6.59266 4.8788C6.17789 5.05074 5.80107 5.30275 5.48375 5.62042C5.16608 5.93773 4.91407 6.31455 4.74213 6.72933C4.57019 7.14411 4.48169 7.58871 4.48169 8.03771C4.48169 8.48671 4.57019 8.93131 4.74213 9.34609C4.91407 9.76086 5.16608 10.1377 5.48375 10.455L5.58625 10.5575C5.98008 10.9601 6.24428 11.4715 6.34476 12.0257C6.44524 12.5798 6.3774 13.1514 6.15 13.6667C5.95476 14.1975 5.60435 14.6573 5.1443 14.9864C4.68426 15.3154 4.13587 15.4984 3.57042 15.5117H3.41667C2.51051 15.5117 1.64147 15.8716 1.00072 16.5124C0.359969 17.1531 0 18.0222 0 18.9283C0 19.8345 0.359969 20.7035 1.00072 21.3443C1.64147 21.985 2.51051 22.345 3.41667 22.345H3.70708C4.2568 22.3472 4.79388 22.5101 5.25221 22.8136C5.71054 23.1171 6.07011 23.5481 6.28667 24.0533C6.51407 24.5686 6.58191 25.1402 6.48142 25.6943C6.38094 26.2485 6.11675 26.7599 5.72292 27.1625L5.62042 27.265C5.30275 27.5823 5.05074 27.9591 4.8788 28.3739C4.70685 28.7887 4.61835 29.2333 4.61835 29.6823C4.61835 30.1313 4.70685 30.5759 4.8788 30.9907C5.05074 31.4054 5.30275 31.7823 5.62042 32.0996C5.93773 32.4173 6.31455 32.6693 6.72933 32.8412C7.14411 33.0131 7.58871 33.1016 8.03771 33.1016C8.48671 33.1016 8.93131 33.0131 9.34609 32.8412C9.76086 32.6693 10.1377 32.4173 10.455 32.0996L10.5575 31.9971C10.9601 31.6032 11.4715 31.3391 12.0257 31.2386C12.5798 31.1381 13.1514 31.2059 13.6667 31.4333C14.1975 31.6286 14.6573 31.979 14.9864 32.439C15.3154 32.8991 15.4984 33.4475 15.5117 34.0129V34.1667C15.5117 35.0728 15.8716 35.9419 16.5124 36.5826C17.1531 37.2234 18.0222 37.5833 18.9283 37.5833C19.8345 37.5833 20.7035 37.2234 21.3443 36.5826C21.985 35.9419 22.345 35.0728 22.345 34.1667V33.8762C22.3472 33.3265 22.5101 32.7895 22.8136 32.3311C23.1171 31.8728 23.5481 31.5132 24.0533 31.2967C24.5686 31.0693 25.1402 31.0014 25.6943 31.1019C26.2485 31.2024 26.7599 31.4666 27.1625 31.8604L27.265 31.9629C27.5823 32.2806 27.9591 32.5326 28.3739 32.7045C28.7887 32.8765 29.2333 32.965 29.6823 32.965C30.1313 32.965 30.5759 32.8765 30.9907 32.7045C31.4054 32.5326 31.7823 32.2806 32.0996 31.9629C32.4173 31.6456 32.6693 31.2688 32.8412 30.854C33.0131 30.4392 33.1016 29.9946 33.1016 29.5456C33.1016 29.0966 33.0131 28.652 32.8412 28.2372C32.6693 27.8225 32.4173 27.4456 32.0996 27.1283L31.9971 27.0258C31.6032 26.6232 31.3391 26.1118 31.2386 25.5577ZM23.9167 18.7916C23.9167 21.6221 21.6221 23.9166 18.7917 23.9166C15.9612 23.9166 13.6667 21.6221 13.6667 18.7916C13.6667 15.9612 15.9612 13.6666 18.7917 13.6666C21.6221 13.6666 23.9167 15.9612 23.9167 18.7916Z" fill="white"/>
</svg>
